<svg width="24" height="24" viewBox="0 0 71 55" fill="none" xmlns="http://www.w3.org/2000/svg">
  <path fill="#3ABFFF" d="M60.104 4.541A58.736 58.736 0 0046.761.9a41.594 41.594 0 00-1.965 4.046 55.038 55.038 0 00-16.624 0 41.994 41.994 0 00-1.972-4.046 59.14 59.14 0 00-13.37 3.642C2.132 21.146-1.316 36.374.556 51.505a60.232 60.232 0 0018.46 5.93 43.9 43.9 0 003.4-5.5 39.927 39.927 0 01-6.2-3.03 33.435 33.435 0 005.94 2.84 41.775 41.775 0 0039.01 0 33.65 33.65 0 005.93-2.84 40.69 40.69 0 01-6.21 3.03 43.81 43.81 0 003.4 5.5 60.264 60.264 0 0018.46-5.93c2.5-16.024-.907-31.253-11.76-46.964zM23.725 37.64c-3.188 0-5.798-2.918-5.798-6.508 0-3.59 2.57-6.508 5.797-6.508 3.263 0 5.9 2.92 5.798 6.508 0 3.59-2.57 6.508-5.797 6.508zm23.55 0c-3.188 0-5.8-2.918-5.8-6.508 0-3.59 2.57-6.508 5.8-6.508 3.26 0 5.9 2.92 5.8 6.508 0 3.59-2.54 6.508-5.8 6.508z"/>
</svg>
